<?xml version="1.0" standalone="no"?>
<!DOCTYPE svg PUBLIC "-//W3C//DTD SVG 20010904//EN"
 "http://www.w3.org/TR/2001/REC-SVG-20010904/DTD/svg10.dtd">
<svg version="1.0" xmlns="http://www.w3.org/2000/svg"
 width="282.000000pt" height="282.000000pt" viewBox="0 0 282.000000 282.000000"
 preserveAspectRatio="xMidYMid meet">
<metadata>
Created by potrace 1.10, written by Peter Selinger 2001-2011
</metadata>
<g transform="translate(0.000000,282.000000) scale(0.100000,-0.100000)"
fill="#000000" stroke="none">
<path d="M703 2813 c24 -6 24 -63 0 -63 -16 0 -16 -1 0 -17 21 -21 23 -19 30
40 7 46 6 47 -21 46 -17 -1 -20 -3 -9 -6z"/>
<path d="M766 2785 c-4 -20 -4 -40 -1 -46 4 -5 2 -16 -5 -24 -9 -10 -5 -23 15
-54 14 -23 30 -41 35 -41 6 0 10 -7 10 -15 0 -9 5 -21 10 -28 6 -7 17 -21 24
-31 10 -15 14 -16 18 -5 3 8 -14 40 -38 71 -28 38 -42 64 -38 75 5 15 4 15 -4
4 -8 -11 -11 1 -11 44 0 33 5 65 11 72 8 10 6 13 -5 13 -9 0 -17 -13 -21 -35z"/>
<path d="M2190 2818 c0 -14 40 -104 53 -119 9 -10 17 -24 17 -29 0 -6 5 -10
10 -10 18 0 11 35 -12 60 -13 14 -23 30 -24 35 -1 21 -24 65 -34 65 -5 0 -10
-1 -10 -2z"/>
<path d="M260 2786 c0 -18 27 -29 36 -14 4 5 0 14 -7 19 -20 13 -29 11 -29 -5z"/>
<path d="M1663 2725 c-7 -20 6 -33 16 -16 6 9 10 7 14 -8 6 -23 27 -29 27 -8
-1 17 -25 47 -39 47 -6 0 -14 -7 -18 -15z"/>
<path d="M670 2695 c0 -8 9 -15 19 -15 11 0 23 -4 26 -10 3 -5 1 -10 -4 -10
-8 0 -7 -7 1 -19 7 -11 15 -18 19 -15 14 8 21 -17 9 -31 -9 -11 -9 -15 -1 -15
6 0 11 5 11 11 0 5 5 7 11 4 6 -4 8 -9 6 -12 -3 -2 6 -15 19 -28 21 -21 22
-28 13 -49 -9 -19 -9 -40 0 -87 7 -33 10 -63 8 -65 -7 -7 46 -64 59 -64 16 0
22 -19 30 -95 7 -63 25 -92 23 -37 -1 78 -16 124 -51 155 -40 38 -56 83 -52
156 3 64 -5 88 -51 148 -19 25 -35 58 -35 72 0 18 -3 22 -9 12 -7 -10 -13 -11
-30 -2 -17 10 -21 9 -21 -4z"/>
<path d="M1414 2658 c-5 -8 -2 -9 9 -5 11 4 17 1 17 -7 0 -8 9 -16 20 -19 26
-7 25 1 -2 24 -25 22 -34 23 -44 7z"/>
<path d="M1908 2653 c14 -6 17 -63 2 -63 -5 0 -7 -7 -3 -16 9 -25 23 4 23 49
0 29 -4 37 -17 36 -11 0 -13 -3 -5 -6z"/>
<path d="M394 2604 c1 -37 4 -47 12 -40 7 6 9 15 6 20 -3 5 -8 23 -12 40 -6
25 -7 21 -6 -20z"/>
<path d="M2276 2592 c-9 -15 12 -44 28 -39 11 4 35 -14 71 -52 13 -14 28 -20
35 -16 16 10 -74 95 -100 95 -10 0 -20 5 -22 12 -3 9 -6 9 -12 0z"/>
<path d="M455 2555 c-47 -17 -89 -19 -116 -5 -11 6 -19 7 -19 1 0 -5 15 -16
34 -25 37 -18 116 -22 116 -6 0 6 -8 10 -17 10 -15 0 -16 2 -3 10 8 5 27 10
43 10 15 0 27 5 27 10 0 13 -17 12 -65 -5z"/>
<path d="M490 2530 c-13 -8 -12 -10 5 -11 11 -1 30 -3 43 -4 12 -1 22 2 22 6
0 5 -6 9 -14 9 -8 0 -20 2 -28 5 -7 3 -20 0 -28 -5z"/>
<path d="M847 2492 c-3 -15 -3 -48 0 -72 4 -36 14 -53 44 -81 29 -26 42 -49
51 -87 14 -56 36 -71 34 -22 -1 17 -7 30 -13 30 -7 0 -13 10 -13 23 -1 25 -22
57 -39 57 -6 0 -11 11 -11 24 0 27 -16 43 -23 24 -2 -7 -7 9 -11 35 -4 27 -5
51 -2 55 3 3 6 -5 6 -18 0 -13 3 -21 6 -18 7 8 -6 78 -16 78 -4 0 -10 -13 -13
-28z"/>
<path d="M270 2468 c0 -16 -4 -28 -10 -28 -5 0 -10 8 -10 18 0 9 -4 13 -8 7
-4 -5 -23 -11 -41 -13 -19 -1 -37 -4 -39 -6 -2 -2 1 -19 6 -37 7 -31 9 -32 14
-11 3 12 2 22 -4 22 -5 0 -6 5 -3 10 10 16 68 13 62 -3 -4 -10 3 -12 24 -9 16
2 29 9 29 14 0 5 7 3 15 -6 16 -16 40 -12 63 10 21 21 14 27 -25 20 -32 -5
-41 -2 -55 17 l-18 22 0 -27z"/>
<path d="M403 2453 c-4 -10 -11 -21 -16 -24 -5 -3 -2 -9 7 -12 9 -4 16 -3 16
1 0 12 194 1 202 -11 4 -7 4 -23 1 -36 -4 -17 -2 -22 6 -17 6 4 11 20 11 36 0
32 -11 38 -77 42 -24 2 -43 8 -43 14 0 6 -12 9 -29 6 -16 -2 -32 1 -35 7 -11
17 -36 13 -43 -6z"/>
<path d="M2723 2423 c-27 -5 -30 -18 -7 -27 9 -4 17 -5 18 -4 1 2 8 11 15 21
7 9 10 16 5 16 -5 -1 -19 -4 -31 -6z"/>
<path d="M2030 2376 c0 -14 4 -27 9 -31 12 -7 25 31 16 45 -11 18 -25 10 -25
-14z"/>
<path d="M161 2363 c-52 -18 -42 -27 40 -37 45 -5 58 -3 63 9 3 8 13 15 23 14
11 0 13 -3 6 -6 -20 -8 -15 -23 7 -23 11 0 20 6 20 14 0 8 3 22 7 32 5 14 2
16 -28 10 -46 -9 -61 -10 -79 -3 -8 3 -35 -2 -59 -10z"/>
<path d="M355 2353 c5 -25 1 -37 -16 -54 -18 -18 -29 -21 -71 -17 -36 4 -51 2
-55 -8 -3 -8 -11 -14 -19 -14 -8 0 -14 -4 -14 -9 0 -5 -9 -13 -20 -16 -22 -7
-46 -43 -35 -53 3 -4 9 -2 13 4 27 42 180 97 166 60 -3 -8 -1 -17 5 -21 7 -4
11 3 11 17 0 24 16 48 32 48 7 0 6 -116 -1 -237 -1 -8 -15 -13 -33 -13 -46 0
-62 -12 -38 -28 12 -7 20 -8 20 -2 0 5 9 10 21 10 39 0 52 26 51 106 0 41 4
74 9 74 5 0 9 -16 9 -35 0 -25 4 -33 13 -29 8 3 20 -2 27 -11 7 -8 21 -15 31
-15 12 0 19 -7 19 -20 0 -11 5 -20 10 -20 6 0 10 10 9 23 0 15 -15 31 -47 52
-35 22 -48 37 -50 58 -2 16 -8 25 -14 21 -7 -5 -9 4 -6 25 3 18 1 34 -4 37 -4
3 -1 18 9 34 17 30 54 42 105 35 16 -2 47 -6 70 -9 24 -3 36 -3 28 1 -8 3 -18
11 -22 17 -12 18 -160 14 -175 -4 -10 -13 -14 -12 -28 5 -15 19 -16 19 -10
-12z"/>
<path d="M74 2341 c10 -15 -15 -70 -32 -74 -12 -3 -10 -5 6 -6 12 0 22 -7 22
-13 0 -9 4 -8 10 2 8 13 10 12 10 -4 0 -15 3 -17 12 -8 9 9 8 16 -5 30 -19 21
-22 43 -6 59 7 7 6 12 -6 17 -9 3 -14 2 -11 -3z"/>
<path d="M2474 2320 c-1 -32 5 -37 24 -18 7 7 8 17 1 30 -14 27 -24 22 -25
-12z"/>
<path d="M970 2160 c-11 -7 -12 -13 -2 -32 19 -37 3 -208 -29 -328 -6 -22 -6
-46 0 -65 l9 -30 2 35 c2 40 18 88 19 58 1 -10 6 -18 11 -18 6 0 8 10 4 24 -3
13 -1 27 4 30 8 5 6 325 -2 333 -1 1 -8 -2 -16 -7z"/>
<path d="M291 2109 c-26 -46 -21 -63 8 -28 17 20 29 69 18 69 -2 0 -14 -18
-26 -41z"/>
<path d="M758 2125 c-4 -17 -1 -25 8 -25 8 0 14 11 14 25 0 14 -4 25 -9 25 -5
0 -11 -11 -13 -25z"/>
<path d="M929 2118 c0 -7 -2 -24 -5 -38 -2 -14 -7 -62 -10 -107 -4 -45 -11
-80 -15 -77 -5 3 -9 1 -9 -5 0 -5 5 -13 11 -17 6 -3 7 -9 2 -13 -29 -21 -34
-87 -12 -156 7 -22 -13 -94 -28 -99 -14 -6 -14 -8 1 -24 9 -10 16 -31 16 -45
0 -15 4 -27 9 -27 5 0 17 -12 26 -26 17 -26 17 -27 -3 -22 -15 4 -19 2 -15 -8
6 -17 25 -18 40 -3 9 9 5 21 -15 47 -21 28 -27 47 -28 89 0 29 3 53 8 53 10 0
10 64 -1 112 -6 25 -5 45 4 60 6 13 12 30 13 38 0 8 4 38 7 65 11 96 18 215
11 215 -3 0 -6 -6 -7 -12z"/>
<path d="M1026 2108 c-3 -13 -5 -39 -5 -58 1 -27 3 -22 9 20 9 58 7 77 -4 38z"/>
<path d="M1513 2082 c-6 -11 -8 -23 -3 -28 5 -5 10 -22 12 -39 4 -25 6 -27 12
-12 5 10 5 36 0 58 -8 36 -10 38 -21 21z"/>
<path d="M489 2008 c-7 -18 -12 -41 -11 -50 1 -10 -3 -18 -8 -18 -6 0 -10 -7
-10 -15 0 -8 5 -15 11 -15 12 0 39 61 39 90 0 11 5 20 11 20 5 0 7 5 4 10 -11
18 -23 11 -36 -22z"/>
<path d="M1592 2004 c-8 -8 -11 -22 -8 -30 8 -21 46 0 46 26 0 24 -20 25 -38
4z"/>
<path d="M2270 1981 c-14 -27 9 -40 27 -16 17 24 17 35 -2 35 -8 0 -19 -9 -25
-19z"/>
<path d="M138 1979 c-21 -12 -34 -67 -19 -82 8 -8 11 -4 11 14 0 13 7 35 16
47 19 27 16 34 -8 21z"/>
<path d="M1016 1981 c-8 -12 3 -41 15 -41 5 0 9 11 9 25 0 25 -14 34 -24 16z"/>
<path d="M2292 1941 c-11 -6 -10 -10 3 -15 10 -3 15 -12 11 -21 -3 -8 -1 -17
4 -20 6 -4 10 -1 10 5 0 6 5 8 11 5 6 -4 8 -13 5 -21 -3 -8 1 -14 9 -14 19 0
19 14 1 30 -8 6 -16 21 -18 32 -3 24 -17 31 -36 19z"/>
<path d="M1750 1923 c-10 -12 -11 -18 -2 -21 16 -5 15 -29 0 -35 -8 -4 -7 -6
3 -6 13 -1 18 10 21 39 4 44 0 48 -22 23z"/>
<path d="M366 1877 c-4 -26 -6 -58 -4 -70 5 -28 -16 -50 -41 -42 -12 4 -21 0
-25 -11 -5 -13 -2 -15 16 -10 69 20 77 19 87 -5 9 -23 10 -23 10 -2 1 12 -6
28 -14 36 -9 9 -15 40 -17 83 l-3 69 -9 -48z"/>
<path d="M2657 1898 c-3 -11 -14 -14 -31 -11 -19 4 -26 1 -26 -11 0 -22 -30
-21 -31 2 -1 11 -3 9 -8 -7 -8 -29 -59 -51 -71 -31 -6 9 -9 9 -13 -1 -5 -11
-9 -10 -20 4 -15 18 -32 24 -22 7 6 -10 -18 -9 -135 5 -20 3 -49 0 -65 -4 -29
-9 -28 -9 13 -10 24 -1 92 -8 151 -17 l109 -16 50 26 c46 23 63 26 157 26 68
0 105 4 105 11 0 6 -9 8 -20 4 -31 -10 -80 4 -81 23 0 12 -3 10 -9 -5 -12 -29
-28 -29 -39 -1 -6 17 -9 18 -14 6z"/>
<path d="M1085 1865 c-26 -11 -28 -14 -12 -20 12 -5 24 -2 35 8 22 23 13 28
-23 12z"/>
<path d="M2145 1870 c-3 -5 0 -10 7 -10 9 0 9 -3 -2 -10 -20 -13 -4 -13 21 1
11 5 17 14 14 20 -8 12 -32 12 -40 -1z"/>
<path d="M285 1850 c4 -6 2 -17 -5 -25 -13 -16 1 -28 24 -19 21 8 21 40 0 48
-22 8 -26 8 -19 -4z"/>
<path d="M1660 1851 c0 -19 28 -62 34 -52 4 5 2 12 -4 16 -5 3 -10 15 -10 26
0 10 -4 19 -10 19 -5 0 -10 -4 -10 -9z"/>
<path d="M227 1833 c-4 -3 -7 -17 -7 -29 0 -13 -9 -29 -19 -36 -14 -10 -18
-21 -14 -41 7 -35 19 -34 26 2 3 16 12 35 19 42 24 25 18 86 -5 62z"/>
<path d="M2178 1835 c-9 -9 -115 -34 -155 -37 -23 -1 -43 -9 -51 -20 -18 -24
-53 -24 -46 0 5 13 4 14 -4 3 -5 -7 -14 -11 -20 -7 -6 3 -13 2 -17 -4 -3 -5 3
-10 14 -10 12 0 21 -5 21 -11 0 -7 -7 -8 -17 -4 -10 4 -27 8 -38 9 -30 2 -45
15 -45 39 -1 21 -1 21 -12 3 -9 -15 -7 -22 7 -32 23 -17 13 -44 -14 -37 -12 3
-32 -2 -46 -11 -13 -9 -32 -16 -42 -17 -11 0 -13 -3 -5 -6 17 -7 15 -16 -9
-31 -19 -12 -20 -11 -15 10 4 19 4 19 -6 -3 -10 -23 -60 -54 -81 -50 -5 1 -6
-3 -3 -8 7 -11 -43 -45 -52 -36 -4 3 0 10 8 15 8 5 11 12 7 17 -5 4 -12 2 -16
-5 -4 -7 -15 -10 -24 -6 -9 3 -17 2 -17 -4 0 -6 6 -13 13 -15 6 -3 0 -6 -15
-6 -16 -1 -28 3 -28 9 0 5 -7 7 -15 4 -20 -8 -19 -30 1 -38 27 -10 64 -7 64 7
0 8 3 8 9 -2 8 -12 16 -10 45 13 20 15 36 31 36 36 0 5 16 12 35 16 19 3 54
21 77 40 24 19 51 34 60 34 9 0 24 7 32 16 9 8 20 12 26 9 5 -3 10 1 10 9 0
17 25 22 34 8 5 -8 291 79 304 92 3 3 3 8 0 11 -2 3 -7 3 -10 0z"/>
<path d="M2562 1805 c-41 -23 -47 -24 -140 -15 -53 5 -112 12 -130 16 -21 4
-46 1 -70 -9 -20 -8 -55 -20 -77 -26 -22 -6 -82 -25 -133 -41 -52 -17 -102
-30 -112 -30 -10 0 -21 -4 -24 -9 -4 -5 -24 -12 -45 -16 -23 -4 -55 -20 -78
-39 -21 -18 -52 -36 -69 -40 -18 -4 -50 -23 -72 -42 -36 -31 -48 -35 -99 -36
-32 0 -74 1 -95 2 -35 4 -118 -25 -118 -40 0 -4 13 -10 30 -12 25 -4 28 -2 18
10 -10 11 -8 13 12 10 14 -2 30 3 36 12 10 12 15 13 38 0 19 -10 23 -16 14
-22 -8 -5 2 -8 25 -8 23 0 36 -4 32 -10 -3 -5 -1 -10 4 -10 18 0 12 17 -11 34
-22 17 -22 17 23 12 39 -5 51 -2 70 17 43 41 94 68 107 55 8 -8 13 -7 18 5 10
26 44 21 45 -5 1 -18 2 -19 6 -5 3 10 -1 25 -8 33 -18 22 2 39 29 25 31 -16
37 -13 18 8 -17 18 -16 19 24 26 28 5 46 3 57 -7 10 -8 14 -8 10 -1 -10 16 12
28 48 25 16 -1 24 1 18 4 -17 8 -16 24 1 24 8 0 16 -7 20 -15 3 -8 13 -15 22
-15 10 0 14 6 11 14 -3 8 0 22 8 32 10 14 16 16 26 7 15 -12 69 -6 69 8 0 5 7
9 15 9 9 0 18 6 20 13 3 6 23 13 46 14 33 2 41 -1 49 -20 9 -22 9 -22 11 3 1
14 1 28 0 33 0 4 8 7 20 7 11 0 18 -4 15 -9 -4 -5 -2 -20 3 -33 l10 -23 0 23
c1 12 6 22 12 22 5 0 7 5 3 11 -5 9 1 10 22 5 16 -4 29 -8 30 -9 1 -1 6 -11
12 -22 9 -16 11 -17 12 -4 0 26 28 31 41 8 7 -15 14 -18 21 -11 6 6 16 8 23 5
8 -2 25 3 39 12 14 10 35 15 45 12 13 -3 18 -1 15 8 -5 12 23 28 42 24 35 -6
194 3 194 11 0 6 -42 10 -107 10 -96 0 -113 -3 -151 -25z"/>
<path d="M6 1764 c-3 -9 -6 -25 -6 -37 0 -19 2 -19 15 7 8 15 15 32 15 37 0
15 -17 10 -24 -7z"/>
<path d="M50 1766 c0 -7 9 -16 20 -19 15 -4 20 0 20 14 0 12 -7 19 -20 19 -11
0 -20 -6 -20 -14z"/>
<path d="M1687 1773 c-10 -9 -9 -43 1 -43 5 0 14 11 20 25 9 20 9 25 -2 25 -7
0 -16 -3 -19 -7z"/>
<path d="M362 1726 c5 -24 3 -27 -16 -22 -12 3 -28 1 -36 -4 -13 -9 -13 -10 0
-11 8 -1 21 -1 28 0 7 1 12 -10 12 -28 0 -34 9 -61 20 -61 4 0 5 23 2 50 -4
44 -2 50 14 51 11 0 14 3 7 6 -7 2 -13 11 -13 18 0 8 -5 17 -11 21 -8 5 -10
-1 -7 -20z"/>
<path d="M2160 1742 c0 -5 9 -17 21 -28 21 -19 21 -19 18 6 -4 23 -39 43 -39
22z"/>
<path d="M120 1728 c0 -10 -9 -27 -20 -38 -24 -24 -26 -40 -5 -40 22 0 48 56
36 78 -10 16 -10 16 -11 0z"/>
<path d="M1580 1702 c-16 -5 -39 -32 -40 -44 0 -16 26 -7 43 13 21 24 19 38
-3 31z"/>
<path d="M3 1685 c-6 -17 22 -44 47 -45 10 0 11 3 4 8 -6 4 -14 17 -18 30 -8
26 -24 29 -33 7z"/>
<path d="M940 1669 c0 -16 -5 -51 -11 -75 -11 -41 -10 -48 9 -66 11 -11 25
-17 31 -14 16 10 14 23 -5 30 -10 4 -13 2 -8 -6 5 -7 3 -8 -5 -3 -10 5 -11 28
-6 86 4 44 4 79 1 79 -3 0 -6 -14 -6 -31z"/>
<path d="M222 1627 c-16 -20 -24 -57 -13 -57 6 0 11 8 11 18 0 28 11 34 30 17
16 -14 19 -14 34 1 20 19 20 19 -21 27 -19 4 -35 2 -41 -6z"/>
<path d="M123 1594 c-7 -19 0 -26 21 -18 20 8 21 20 1 28 -9 3 -18 -1 -22 -10z"/>
<path d="M2292 1591 c-11 -6 -9 -9 5 -13 11 -3 28 1 38 8 18 13 17 14 -6 14
-13 0 -30 -4 -37 -9z"/>
<path d="M1306 1563 c-11 -18 -25 -29 -33 -26 -7 3 -21 2 -30 -2 -10 -5 -22
-9 -28 -9 -5 -1 -45 -18 -88 -39 -53 -25 -86 -35 -102 -31 -20 5 -23 3 -18
-15 3 -12 9 -21 14 -21 8 0 89 30 134 49 11 5 61 23 110 41 117 42 135 51 135
67 0 17 -15 17 -34 -2 -19 -20 -34 -19 -38 3 -3 13 -8 10 -22 -15z"/>
<path d="M280 1570 c-9 -6 -7 -10 9 -15 26 -8 71 1 71 14 0 11 -62 12 -80 1z"/>
<path d="M2720 1516 c0 -24 2 -25 26 -14 17 8 21 14 13 16 -8 3 -20 9 -26 15
-10 7 -13 3 -13 -17z"/>
<path d="M10 1501 c-5 -11 -10 -30 -10 -43 1 -19 4 -16 20 16 23 46 23 46 10
46 -5 0 -14 -9 -20 -19z"/>
<path d="M1205 1455 c-33 -14 -63 -25 -68 -25 -17 0 -97 -43 -97 -52 0 -9 76
-125 90 -138 12 -10 119 -186 136 -223 12 -24 23 -36 32 -32 7 3 18 5 23 5 19
0 8 19 -18 32 -17 9 -27 20 -25 31 2 12 -2 15 -13 11 -13 -5 -14 -2 -5 21 14
36 13 42 -4 20 -13 -18 -14 -18 -20 3 -4 12 -12 22 -17 22 -5 0 -8 3 -8 8 3
20 -2 33 -11 27 -7 -4 -8 3 -4 20 5 21 3 27 -15 32 -22 6 -27 18 -11 28 6 3
10 14 10 23 0 13 -2 13 -15 -4 -14 -19 -15 -18 -35 6 -11 14 -20 28 -20 32 0
4 -12 24 -26 45 l-25 38 26 7 c15 4 33 4 41 1 8 -3 14 0 14 6 0 6 13 11 29 11
17 0 32 4 36 10 3 5 11 7 18 4 7 -2 19 7 27 21 8 15 20 23 27 20 8 -2 11 0 8
5 -8 14 -12 13 -80 -15z"/>
<path d="M2470 1444 c-14 -36 -16 -34 29 -25 2 1 -2 8 -9 16 -6 8 -9 19 -5 25
3 5 4 10 0 10 -3 0 -10 -12 -15 -26z"/>
<path d="M116 1429 c-18 -36 -15 -45 10 -35 9 4 14 9 11 13 -4 3 -2 12 5 20 8
10 8 17 1 24 -7 7 -16 1 -27 -22z"/>
<path d="M2201 1453 c9 -2 21 -14 27 -26 10 -21 11 -21 11 6 1 23 -3 27 -26
26 -16 -1 -21 -3 -12 -6z"/>
<path d="M2809 1448 c-6 -15 -3 -88 3 -88 4 0 8 20 8 45 0 25 -2 45 -5 45 -3
0 -5 -1 -6 -2z"/>
<path d="M1346 1425 c4 -9 -3 -16 -20 -21 -14 -3 -26 -10 -26 -15 0 -12 17
-11 41 1 19 11 27 50 9 50 -5 0 -7 -7 -4 -15z"/>
<path d="M950 1415 c0 -8 5 -15 11 -15 6 0 9 -7 6 -14 -4 -11 -1 -13 10 -9 13
5 13 3 4 -15 -15 -27 -14 -33 3 -30 20 4 56 -41 57 -71 l0 -26 10 24 c8 19 1
36 -37 97 -45 72 -64 90 -64 59z"/>
<path d="M391 1403 c-1 -23 -21 -33 -21 -11 0 7 -6 6 -17 -4 -12 -10 -35 -14
-70 -13 l-52 2 -21 -43 c-11 -24 -20 -52 -19 -61 0 -16 2 -15 9 2 7 16 9 11 9
-20 1 -31 -2 -37 -10 -25 -9 13 -10 13 -6 -2 3 -9 9 -33 13 -52 3 -20 10 -36
14 -36 13 0 20 41 20 122 l0 77 323 3 c177 2 325 1 328 -2 3 -3 4 -43 1 -90
l-4 -85 -324 3 c-285 2 -324 1 -324 -13 0 -14 28 -20 74 -15 35 3 86 -11 86
-24 0 -16 37 -28 46 -15 3 5 -2 9 -10 9 -9 0 -16 9 -16 20 0 16 7 20 30 20 17
0 30 -4 30 -9 0 -15 39 -19 76 -8 32 10 38 9 50 -8 8 -10 14 -14 14 -8 0 14
71 25 85 13 7 -6 14 -8 16 -6 2 3 42 7 88 9 67 3 86 8 93 22 9 14 12 15 20 4
6 -9 8 17 6 74 -3 80 3 106 15 75 3 -8 6 -6 6 5 1 9 -4 17 -10 17 -7 0 -22 11
-34 24 -24 26 -34 26 -432 26 -66 0 -72 1 -76 22 l-4 23 -2 -22z"/>
<path d="M2350 1374 c0 -16 4 -23 11 -18 7 4 20 -4 31 -17 l19 -24 -7 25 c-3
14 -7 30 -8 35 0 6 -5 13 -11 17 -20 15 -35 7 -35 -18z"/>
<path d="M105 1353 c8 -32 13 -39 21 -30 10 9 -5 57 -17 57 -7 0 -9 -10 -4
-27z"/>
<path d="M2480 1351 c0 -22 25 -45 40 -36 16 10 12 21 -15 39 -24 16 -25 15
-25 -3z"/>
<path d="M1947 1310 c6 -24 26 -21 31 3 2 11 -3 17 -16 17 -15 0 -19 -5 -15
-20z"/>
<path d="M338 1266 c-3 -14 -2 -28 1 -33 3 -4 57 -8 119 -8 l112 0 0 26 c0 25
0 25 -80 24 -63 -1 -84 -6 -101 -21 -21 -19 -21 -19 -18 6 5 34 -27 40 -33 6z"/>
<path d="M644 1258 c-11 -35 13 -49 40 -22 15 14 17 14 32 -1 13 -12 19 -13
31 -3 12 9 16 9 23 -3 14 -21 35 4 23 26 -8 13 -26 18 -76 19 -57 2 -68 0 -73
-16z"/>
<path d="M1824 1243 c1 -16 -8 -18 -77 -15 -46 2 -90 -1 -107 -8 -24 -10 -35
-9 -61 4 -40 20 -36 21 -44 -14 -4 -17 -10 -28 -15 -25 -4 3 -10 -2 -14 -10
-3 -8 -1 -17 3 -19 5 -3 5 -24 1 -47 -4 -23 -3 -55 2 -72 12 -37 66 -86 77
-69 4 6 26 10 49 9 23 -2 42 0 42 3 0 3 18 5 40 5 22 0 40 -2 40 -5 0 -3 18
-4 40 -2 25 3 40 0 40 -7 0 -8 6 -7 20 1 16 10 24 10 39 1 15 -10 20 -9 25 2
7 20 35 19 59 -2 17 -15 20 -16 15 -2 -5 13 2 16 38 15 24 -1 44 -4 44 -7 0
-3 10 -5 22 -5 15 1 24 -7 29 -24 l7 -25 2 25 c1 14 2 29 1 34 -1 5 20 6 46 2
26 -4 63 -7 81 -6 36 1 40 -6 15 -27 -17 -14 -17 -14 0 -9 10 3 22 6 27 6 5 0
11 9 15 19 8 25 35 16 35 -11 0 -31 19 -11 26 29 4 20 2 43 -3 53 -8 11 -7 23
3 41 7 13 13 18 14 12 0 -7 10 -13 23 -13 l22 1 -22 18 c-13 11 -23 27 -23 36
0 9 -4 14 -9 11 -5 -4 -12 7 -16 24 -9 40 -64 68 -101 51 -31 -14 -47 -14 -39
0 5 7 -14 10 -57 9 -34 0 -70 0 -78 1 -30 4 -51 -1 -45 -11 3 -6 -4 -10 -17
-10 -16 0 -19 3 -10 9 11 7 10 10 -3 15 -23 9 -25 8 -25 -9 0 -8 -7 -15 -16
-15 -8 0 -12 5 -9 10 8 13 -8 13 -40 -2 -21 -9 -28 -9 -34 1 -8 13 -57 41 -71
41 -4 0 -7 -8 -6 -17z m526 -143 c0 -82 -9 -115 -25 -90 -4 7 -136 10 -393 9
l-386 -2 1 89 c1 49 2 89 2 89 1 0 181 -1 401 -3 l400 -2 0 -90z"/>
<path d="M1650 1116 c0 -40 11 -56 37 -56 14 0 22 4 18 10 -4 6 -10 8 -15 5
-11 -7 -22 24 -15 46 4 13 1 19 -9 19 -10 0 -16 -9 -16 -24z"/>
<path d="M1960 1111 c0 -27 -20 -47 -34 -34 -12 13 -5 33 11 33 12 0 14 3 6
11 -17 17 -33 1 -33 -31 0 -27 3 -29 35 -28 30 1 35 5 35 25 0 30 20 20 21
-10 1 -20 2 -20 8 3 8 26 -5 54 -20 44 -5 -3 -9 0 -9 5 0 6 -4 11 -10 11 -5 0
-10 -13 -10 -29z"/>
<path d="M2060 1121 c0 -11 9 -23 20 -26 11 -4 18 -11 14 -16 -4 -6 -11 -6
-19 1 -9 8 -15 8 -20 0 -8 -12 17 -23 42 -18 26 5 29 38 4 45 -11 3 -18 9 -16
14 3 4 12 6 20 2 8 -3 15 0 15 6 0 6 -13 11 -30 11 -23 0 -30 -5 -30 -19z"/>
<path d="M2130 1097 c0 -22 4 -36 10 -32 5 3 7 12 3 20 -3 8 0 15 5 15 6 0 13
-10 15 -22 2 -13 5 -6 6 17 1 35 -2 41 -19 41 -17 0 -20 -7 -20 -39z"/>
<path d="M1722 1118 c3 -7 10 -13 16 -13 5 0 14 -3 18 -7 4 -5 -2 -8 -14 -8
-13 0 -22 -6 -22 -15 0 -9 10 -15 26 -15 23 0 25 3 22 33 -2 25 -8 33 -27 35
-16 3 -22 -1 -19 -10z"/>
<path d="M1786 1118 c-12 -27 -2 -53 22 -56 20 -3 22 1 21 35 -1 21 -3 29 -6
18 -10 -45 -17 -50 -23 -15 -5 27 -8 31 -14 18z"/>
<path d="M1849 1125 c-6 -3 -5 -56 2 -60 5 -4 9 5 9 19 0 14 5 26 10 26 6 0
10 -12 10 -27 0 -20 3 -24 11 -16 18 18 2 62 -21 60 -11 -1 -20 -1 -21 -2z"/>
<path d="M2187 1116 c-11 -27 4 -56 29 -56 30 0 31 17 2 23 -23 4 -23 4 1 6
17 1 21 5 17 17 -3 9 -6 18 -6 20 0 11 -39 2 -43 -10z"/>
<path d="M2414 1199 c-10 -17 13 -36 27 -22 12 12 4 33 -11 33 -5 0 -12 -5
-16 -11z"/>
<path d="M2491 1161 c-7 -12 -8 -21 -2 -21 5 0 7 -9 4 -20 -4 -14 0 -20 11
-20 9 0 16 8 16 20 0 11 5 20 10 20 6 0 10 7 10 16 0 8 -5 12 -11 8 -6 -3 -15
-1 -19 6 -6 9 -11 7 -19 -9z"/>
<path d="M1130 1160 c0 -16 44 -99 53 -100 13 0 7 21 -19 66 -26 44 -34 52
-34 34z"/>
<path d="M2550 1081 c0 -8 -9 -24 -20 -36 -27 -29 -11 -52 18 -25 24 23 27 37
12 60 -8 13 -10 13 -10 1z"/>
<path d="M1195 1059 c-5 -7 -4 -14 3 -17 7 -2 10 -15 7 -30 -3 -15 -2 -20 1
-12 4 8 10 17 15 20 4 3 2 16 -5 29 -10 18 -15 20 -21 10z"/>
<path d="M2762 1003 c9 -10 13 -24 11 -30 -7 -19 14 -16 21 3 4 10 -1 22 -11
30 -26 19 -39 17 -21 -3z"/>
<path d="M1219 996 c-10 -11 -25 -13 -56 -7 -24 5 -43 4 -43 0 0 -5 15 -9 34
-9 19 0 37 -4 41 -9 3 -6 -4 -45 -15 -87 -13 -52 -17 -81 -10 -88 7 -7 10 -1
10 16 0 15 7 34 16 42 8 9 12 21 9 26 -4 6 -1 17 5 25 6 8 9 24 5 35 -6 19 -5
20 14 9 28 -18 34 -8 18 29 -11 27 -15 30 -28 18z"/>
<path d="M1300 966 c0 -14 143 -126 161 -126 6 0 16 -6 24 -12 7 -7 36 -26 64
-43 28 -16 51 -33 51 -37 0 -5 6 -8 14 -8 7 0 25 -11 40 -25 15 -14 32 -23 37
-20 10 7 -13 35 -29 35 -4 0 -18 10 -30 23 -18 19 -19 26 -9 37 10 10 9 11 -2
5 -8 -4 -17 -2 -22 6 -6 10 -9 11 -9 2 0 -7 -6 -13 -13 -13 -19 0 -52 42 -49
65 2 18 1 19 -6 2 -7 -17 -9 -17 -21 -3 -7 9 -22 16 -33 16 -14 0 -18 5 -14
15 3 9 0 15 -8 15 -26 0 -73 30 -84 55 -13 27 -62 36 -62 11z"/>
<path d="M2629 946 c-9 -9 3 -86 12 -80 5 3 6 22 3 42 -6 40 -8 44 -15 38z"/>
<path d="M957 907 c-4 -10 -7 -35 -6 -55 l1 -37 9 40 c11 45 8 82 -4 52z"/>
<path d="M1310 887 c0 -9 6 -20 13 -24 22 -13 27 -41 12 -57 -8 -8 -15 -17
-15 -21 0 -3 -10 -16 -21 -28 l-22 -22 6 33 c4 17 2 32 -3 32 -18 0 -21 -20
-9 -61 l13 -41 18 22 c10 12 18 27 18 34 0 9 14 29 60 84 8 9 6 14 -7 19 -10
3 -28 15 -40 26 -20 17 -23 18 -23 4z"/>
<path d="M1444 786 c-6 -7 -17 -23 -24 -37 -7 -13 -26 -37 -41 -53 -33 -34
-32 -40 3 -31 16 4 30 19 38 41 17 41 48 73 58 58 4 -6 15 -13 25 -17 18 -7
24 -33 8 -39 -5 -2 -3 -12 6 -23 14 -18 15 -18 9 -2 -3 11 -4 23 -1 27 9 15
50 -6 50 -25 0 -10 8 -19 17 -21 11 -1 15 3 11 14 -3 13 -1 13 11 -2 9 -11 16
-31 16 -45 0 -14 5 -33 10 -41 8 -11 10 0 8 38 l-2 53 -75 50 c-42 27 -81 54
-88 59 -16 13 -25 12 -39 -4z"/>
<path d="M640 689 c0 -11 -12 -13 -49 -11 -42 3 -51 1 -61 -17 -6 -12 -15 -19
-19 -17 -4 3 -7 -19 -6 -49 1 -30 -3 -66 -10 -79 -11 -21 -11 -24 1 -19 12 4
19 -8 12 -22 -2 -2 8 -12 21 -21 17 -12 42 -16 89 -15 54 2 68 -1 84 -18 21
-23 42 -28 36 -9 -3 7 1 18 8 25 15 15 48 17 39 3 -4 -6 14 -10 47 -10 38 0
49 3 38 10 -25 16 11 13 54 -5 21 -9 36 -11 36 -5 0 13 46 13 71 0 15 -8 19
-7 19 5 0 8 5 15 10 15 6 0 10 -5 10 -10 0 -7 6 -7 19 -1 15 9 20 5 30 -27 6
-20 12 -50 14 -66 4 -37 21 -44 40 -16 11 16 16 18 20 8 3 -7 6 -8 6 -3 1 11
87 12 114 0 9 -4 17 -3 17 2 0 6 16 10 35 11 19 1 35 -3 35 -9 0 -7 10 -9 24
-5 14 3 28 1 31 -4 4 -7 11 -7 18 -2 7 5 36 10 66 11 30 1 57 3 59 6 3 2 17
-2 33 -10 20 -11 30 -25 35 -53 4 -20 10 -42 14 -47 5 -6 8 -41 7 -78 -2 -52
0 -64 9 -52 9 12 12 7 17 -30 4 -24 4 -51 1 -60 -4 -11 0 -15 16 -15 17 0 21
4 15 18 -4 9 -9 33 -12 52 -2 19 -8 44 -13 55 -7 18 -15 57 -39 209 l-6 38
-252 -1 -253 -2 0 55 0 56 246 0 c136 -1 248 1 249 2 1 2 -4 19 -11 38 -11 32
-13 33 -19 13 -7 -20 -38 -37 -49 -25 -10 10 -6 33 4 27 6 -3 10 1 10 10 0 12
-4 13 -18 6 -10 -5 -25 -17 -32 -26 -11 -13 -26 -15 -82 -11 -38 3 -77 2 -88
-4 -13 -7 -21 -6 -30 5 -11 14 -15 14 -31 -1 -19 -17 -44 -10 -36 10 4 10 -5
10 -43 0 -27 -7 -58 -18 -70 -24 -12 -6 -24 -9 -28 -6 -3 3 0 6 6 6 7 0 11 10
9 22 -1 16 5 23 22 28 14 3 26 11 27 18 1 7 0 9 -2 4 -3 -5 -15 -7 -28 -5 -27
5 -38 45 -24 83 10 28 1 45 -18 29 -9 -7 -14 -8 -14 -1 0 7 -72 9 -227 6 -158
-3 -230 -1 -240 7 -10 9 -13 8 -13 -2z m480 -118 c0 -43 2 -91 4 -107 2 -16 1
-21 -1 -11 -5 18 -53 20 -430 17 l-153 -1 0 91 0 90 290 0 290 -1 0 -78z"/>
<path d="M712 579 c-11 -17 -16 -18 -28 -8 -8 7 -26 14 -39 15 -19 2 -23 -2
-20 -22 2 -25 15 -46 15 -26 0 16 37 15 43 0 4 -10 8 -9 17 2 9 11 13 12 17 3
7 -19 30 -16 42 4 9 17 10 17 29 0 19 -18 62 -19 74 -3 12 17 -12 46 -37 46
-14 0 -25 -4 -25 -9 0 -10 -50 -2 -65 10 -7 5 -16 0 -23 -12z"/>
<path d="M890 564 c-6 -14 -10 -26 -10 -27 0 -1 14 -2 32 -1 21 1 34 7 39 20
6 15 8 16 8 3 1 -10 13 -19 33 -23 35 -7 54 5 45 27 -4 11 -20 15 -61 13 -31
-1 -56 1 -56 6 0 18 -21 6 -30 -18z"/>
<path d="M1235 670 c-4 -6 5 -10 19 -10 16 0 26 -6 26 -14 0 -16 27 -29 35
-16 8 12 -35 50 -56 50 -10 0 -21 -4 -24 -10z"/>
<path d="M1679 676 c-2 -2 -3 -47 -1 -100 l3 -96 35 0 34 0 0 -56 c0 -51 -2
-56 -20 -51 -29 8 -31 -3 -14 -79 9 -38 22 -110 31 -161 12 -70 18 -90 29 -86
17 6 18 63 2 118 -11 38 -12 39 -19 15 -4 -15 -6 3 -4 45 2 45 1 56 -4 30 -6
-39 -6 -39 -16 28 -9 56 -8 65 2 51 12 -17 13 -17 13 0 0 9 5 14 10 11 6 -3
10 -3 10 2 1 4 5 28 9 52 7 36 5 50 -12 82 -12 23 -28 39 -39 39 -13 0 -18 8
-18 30 0 17 5 30 13 31 6 0 2 5 -10 11 -24 12 -29 28 -14 44 6 5 5 16 -3 26
-7 10 -15 16 -17 14z"/>
<path d="M2118 662 c-10 -2 -18 -7 -18 -12 0 -16 15 -18 39 -6 25 14 11 26
-21 18z"/>
<path d="M2345 656 c-22 -16 -14 -49 10 -40 10 4 14 13 10 22 -3 8 0 19 7 24
7 4 8 8 2 8 -5 0 -19 -6 -29 -14z"/>
<path d="M1800 600 c0 -11 6 -20 14 -20 11 0 14 -14 12 -62 -2 -53 1 -66 18
-80 18 -15 18 -18 5 -18 -17 0 -17 -1 6 -90 4 -14 13 -39 21 -57 8 -17 14 -45
14 -62 0 -26 4 -31 25 -31 l25 0 -21 36 c-16 30 -18 39 -7 45 10 6 9 11 -6 22
-13 9 -17 21 -14 35 3 12 2 22 -3 24 -6 2 -14 31 -19 65 -4 33 -13 71 -20 83
-8 16 -9 25 0 35 9 10 5 23 -16 54 -30 47 -34 49 -34 21z"/>
<path d="M2127 534 c-11 -11 -8 -64 3 -64 11 0 17 12 22 44 3 19 -13 32 -25
20z"/>
<path d="M1290 434 c0 -11 6 -14 23 -9 22 7 22 7 2 -9 -16 -12 -17 -15 -4 -16
18 0 39 19 39 37 0 8 -12 13 -30 13 -21 0 -30 -5 -30 -16z"/>
<path d="M1375 434 c-25 -25 -17 -33 30 -31 31 1 44 6 40 15 -2 6 0 12 5 12 6
0 10 3 10 8 0 14 -70 11 -85 -4z"/>
<path d="M1610 441 c0 -5 -3 -16 -6 -25 -4 -10 -1 -16 9 -16 20 0 29 14 21 34
-7 17 -24 22 -24 7z"/>
<path d="M1527 426 c-8 -19 3 -28 19 -15 8 7 14 7 19 -1 10 -17 25 -11 25 10
0 15 -7 20 -29 20 -16 0 -31 -6 -34 -14z"/>
<path d="M2308 372 c9 -6 5 -12 -13 -20 -14 -7 -24 -16 -21 -21 7 -11 46 -3
46 9 0 5 3 15 6 24 4 11 0 16 -12 16 -14 0 -15 -3 -6 -8z"/>
<path d="M436 363 c-13 -13 -6 -63 9 -63 10 0 15 10 15 29 0 30 -12 46 -24 34z"/>
<path d="M2365 320 c-7 -23 2 -43 16 -35 12 8 12 55 0 55 -5 0 -12 -9 -16 -20z"/>
<path d="M2233 200 c1 -40 1 -40 15 -15 11 22 11 28 -2 40 -13 14 -15 11 -13
-25z"/>
<path d="M754 206 c-3 -14 -10 -26 -15 -26 -5 0 -6 -7 -3 -15 10 -25 21 -17
29 21 7 42 -1 59 -11 20z"/>
<path d="M2757 188 c-4 -12 -4 -24 -2 -27 3 -2 5 1 5 7 0 7 7 12 15 12 8 0 15
7 15 15 0 23 -27 18 -33 -7z"/>
<path d="M2695 143 c-6 -19 -78 -73 -95 -73 -6 0 -10 -7 -10 -15 0 -17 26 -20
36 -4 4 8 9 7 16 -2 5 -9 6 -5 2 13 -5 23 -2 28 20 34 14 3 26 10 26 15 0 5 7
9 15 9 8 0 15 9 15 20 0 25 -16 26 -25 3z"/>
<path d="M1195 130 c-4 -6 -1 -17 5 -25 6 -8 9 -18 6 -24 -10 -16 22 -21 35
-5 9 11 9 21 1 39 -12 26 -36 33 -47 15z"/>
<path d="M2307 106 c-5 -21 -6 -41 -3 -44 12 -11 17 7 14 44 l-3 39 -8 -39z"/>
<path d="M720 122 c0 -6 -7 -9 -15 -6 -9 4 -15 0 -15 -9 0 -18 27 -30 45 -20
11 7 11 11 -1 27 -8 11 -14 15 -14 8z"/>
<path d="M1116 78 c-10 -40 -7 -45 24 -40 33 5 41 22 10 22 -23 0 -26 10 -8
28 9 9 8 12 -4 12 -9 0 -18 -10 -22 -22z"/>
<path d="M1294 84 c3 -9 6 -18 6 -20 0 -6 36 -5 43 2 12 13 -6 34 -30 34 -19
0 -24 -4 -19 -16z"/>
</g>
</svg>
